<svg width="646" height="116" viewBox="0 0 646 116" fill="none" xmlns="http://www.w3.org/2000/svg">
<path fill-rule="evenodd" clip-rule="evenodd" d="M201.355 0H252.101C284.302 0 310.388 25.8918 310.286 57.8759C310.286 89.8599 284.302 115.752 252.101 115.752H201.355C169.256 115.752 143.17 89.8599 143.17 57.8759C143.17 25.8918 169.154 0 201.355 0ZM198.706 103.567C212.054 111.893 236.103 97.6782 252.305 71.8879C268.507 46.0976 270.749 18.3781 257.4 10.0521C244.051 1.72612 220.003 15.9412 203.801 41.7315C187.598 67.5218 185.357 95.2413 198.706 103.567ZM422.377 0H485.861L447.24 58.6881L485.861 115.752H422.377L382.941 57.6728L422.377 0ZM382.941 57.6728V115.752H322.209V0H382.941V57.6728ZM587.354 0H536.607C504.407 0 478.422 25.8918 478.422 57.8759C478.422 89.8599 504.508 115.752 536.607 115.752H587.354C619.554 115.752 645.539 89.8599 645.539 57.8759C645.539 25.8918 619.452 0 587.354 0ZM587.455 71.8879C571.253 97.6782 547.205 111.893 533.856 103.567C520.507 95.2413 522.749 67.5218 538.951 41.7315C555.153 15.9412 579.201 1.72612 592.55 10.0521C606.001 18.3781 603.658 46.0976 587.455 71.8879ZM77.5461 42.7469L98.6395 8.85333e-06H154.99L106.18 76.6601V115.752H48.8102V76.6601L0 8.85333e-06H56.3509L77.5461 42.7469Z" fill="currentColor"/>
</svg>
